<svg width="76" height="76" viewBox="0 0 76 76" fill="none" xmlns="http://www.w3.org/2000/svg">
<circle opacity="0.1" cx="38" cy="38" r="38" fill="#FEFAE0"/>
<path d="M48 26.75H28C25.25 26.75 23 29 23 31.75V44.25C23 47 25.25 49.25 28 49.25H48C50.75 49.25 53 47 53 44.25V31.75C53 29 50.75 26.75 48 26.75ZM50 34L40.125 40.625C39.5 41 38.75 41.25 38 41.25C37.25 41.25 36.5 41 35.875 40.625L26 34C25.5 33.625 25.375 32.875 25.75 32.25C26.125 31.75 26.875 31.625 27.5 32L37.375 38.625C37.75 38.875 38.375 38.875 38.75 38.625L48.625 32C49.25 31.625 50 31.75 50.375 32.375C50.625 32.875 50.5 33.625 50 34Z" fill="#FEFAE0"/>
</svg>
